League Spartan-Extralight.ufo
<glyph name="numbersign" format="2">
	<advance width="1214"/>
	<unicode hex="0023"/>
	<outline>
		<contour>
			<point x="637" y="1320" type="line"/>
			<point x="582" y="1320" type="line"/>
			<point x="234" y="0" type="line"/>
			<point x="288" y="0" type="line"/>
		</contour>
		<contour>
			<point x="979" y="1320" type="line"/>
			<point x="925" y="1320" type="line"/>
			<point x="576" y="0" type="line"/>
			<point x="630" y="0" type="line"/>
		</contour>
		<contour>
			<point x="1078" y="915" type="line"/>
			<point x="259" y="915" type="line"/>
			<point x="240" y="858" type="line"/>
			<point x="1059" y="858" type="line"/>
		</contour>
		<contour>
			<point x="974" y="464" type="line"/>
			<point x="155" y="464" type="line"/>
			<point x="136" y="408" type="line"/>
			<point x="955" y="408" type="line"/>
		</contour>
	</outline>
</glyph>
<glyph name="dollar" format="2">
	<advance width="1003"/>
	<unicode hex="0024"/>
	<outline>
		<contour>
			<point x="542" y="1534" type="line"/>
			<point x="483" y="1534" type="line"/>
			<point x="483" y="1307" type="line"/>
			<point x="542" y="1307" type="line"/>
		</contour>
		<contour>
			<point x="542" y="21" type="line"/>
			<point x="483" y="21" type="line"/>
			<point x="483" y="-206" type="line"/>
			<point x="542" y="-206" type="line"/>
		</contour>
		<component base="S"/>
	</outline>
</glyph>
<glyph name="percent" format="2">
	<advance width="1379"/>
	<unicode hex="0025"/>
	<outline>
		<contour>
			<point x="1086" y="1320" type="line"/>
			<point x="1021" y="1320" type="line"/>
			<point x="253" y="0" type="line"/>
			<point x="318" y="0" type="line"/>
		</contour>
		<contour>
			<point x="104" y="1029" type="curve"/>
			<point x="104" y="1029" type="line"/>
			<point x="104" y="901"/>
			<point x="200" y="806"/>
			<point x="338" y="806" type="curve"/>
			<point x="467" y="806"/>
			<point x="568" y="901"/>
			<point x="568" y="1029" type="curve"/>
			<point x="568" y="1160"/>
			<point x="459" y="1253"/>
			<point x="338" y="1253" type="curve"/>
			<point x="210" y="1253"/>
			<point x="104" y="1160"/>
		</contour>
		<contour>
			<point x="163" y="1029" type="curve"/>
			<point x="163" y="1029" type="line"/>
			<point x="163" y="1133"/>
			<point x="237" y="1198"/>
			<point x="336" y="1198" type="curve"/>
			<point x="430" y="1198"/>
			<point x="509" y="1133"/>
			<point x="509" y="1029" type="curve"/>
			<point x="509" y="920"/>
			<point x="432" y="861"/>
			<point x="336" y="861" type="curve"/>
			<point x="232" y="861"/>
			<point x="163" y="922"/>
		</contour>
		<contour>
			<point x="773" y="290" type="curve"/>
			<point x="773" y="290" type="line"/>
			<point x="773" y="162"/>
			<point x="869" y="67"/>
			<point x="1006" y="67" type="curve"/>
			<point x="1136" y="67"/>
			<point x="1237" y="162"/>
			<point x="1237" y="290" type="curve"/>
			<point x="1237" y="421"/>
			<point x="1128" y="514"/>
			<point x="1006" y="514" type="curve"/>
			<point x="878" y="514"/>
			<point x="773" y="421"/>
		</contour>
		<contour>
			<point x="832" y="290" type="curve"/>
			<point x="832" y="290" type="line"/>
			<point x="832" y="394"/>
			<point x="906" y="459"/>
			<point x="1005" y="459" type="curve"/>
			<point x="1099" y="459"/>
			<point x="1178" y="394"/>
			<point x="1178" y="290" type="curve"/>
			<point x="1178" y="181"/>
			<point x="1101" y="122"/>
			<point x="1005" y="122" type="curve"/>
			<point x="901" y="122"/>
			<point x="832" y="182"/>
		</contour>
	</outline>
</glyph>
<glyph name="ampersand" format="2">
	<advance width="1294"/>
	<unicode hex="0026"/>
	<outline>
		<contour>
			<point x="83" y="309" type="curve"/>
			<point x="83" y="309" type="line"/>
			<point x="83" y="118"/>
			<point x="224" y="-24"/>
			<point x="448" y="-24" type="curve"/>
			<point x="674" y="-24"/>
			<point x="848" y="107"/>
			<point x="955" y="221" type="curve"/>
			<point x="1158" y="0" type="line"/>
			<point x="1245" y="0" type="line"/>
			<point x="995" y="267" type="line"/>
			<point x="1035" y="310"/>
			<point x="1110" y="426"/>
			<point x="1128" y="472" type="curve"/>
			<point x="1082" y="504" type="line"/>
			<point x="1042" y="419"/>
			<point x="987" y="341"/>
			<point x="957" y="304" type="curve"/>
			<point x="595" y="704" type="line"/>
			<point x="645" y="722"/>
			<point x="918" y="819"/>
			<point x="918" y="1074" type="curve"/>
			<point x="918" y="1229"/>
			<point x="798" y="1344"/>
			<point x="619" y="1344" type="curve"/>
			<point x="450" y="1344"/>
			<point x="309" y="1230"/>
			<point x="309" y="1074" type="curve"/>
			<point x="309" y="926"/>
			<point x="454" y="765"/>
			<point x="491" y="728" type="curve"/>
			<point x="411" y="702"/>
			<point x="83" y="594"/>
		</contour>
		<contour>
			<point x="531" y="682" type="curve"/>
			<point x="531" y="682" type="line"/>
			<point x="920" y="261" type="line"/>
			<point x="834" y="163"/>
			<point x="646" y="34"/>
			<point x="446" y="34" type="curve"/>
			<point x="288" y="34"/>
			<point x="142" y="128"/>
			<point x="142" y="309" type="curve"/>
			<point x="142" y="563"/>
			<point x="461" y="664"/>
		</contour>
		<contour>
			<point x="616" y="1282" type="curve"/>
			<point x="616" y="1282" type="line"/>
			<point x="757" y="1282"/>
			<point x="859" y="1192"/>
			<point x="859" y="1074" type="curve"/>
			<point x="859" y="856"/>
			<point x="635" y="768"/>
			<point x="557" y="747" type="curve"/>
			<point x="546" y="758"/>
			<point x="370" y="936"/>
			<point x="370" y="1074" type="curve"/>
			<point x="370" y="1174"/>
			<point x="459" y="1282"/>
		</contour>
	</outline>
</glyph>
<glyph name="parenleft" format="2">
	<advance width="573"/>
	<unicode hex="0028"/>
	<outline>
		<contour>
			<point x="381" y="-397" type="curve"/>
			<point x="381" y="-397" type="line"/>
			<point x="429" y="-350" type="line"/>
			<point x="326" y="-221"/>
			<point x="189" y="93"/>
			<point x="189" y="475" type="curve"/>
			<point x="189" y="882"/>
			<point x="328" y="1213"/>
			<point x="432" y="1349" type="curve"/>
			<point x="376" y="1392" type="line"/>
			<point x="267" y="1243"/>
			<point x="122" y="891"/>
			<point x="122" y="475" type="curve"/>
			<point x="122" y="70"/>
			<point x="269" y="-259"/>
		</contour>
	</outline>
</glyph>
<glyph name="asterisk" format="2">
	<advance width="853"/>
	<unicode hex="002A"/>
	<outline>
		<contour>
			<point x="643" y="1211" type="line"/>
			<point x="440" y="1141" type="line"/>
			<point x="438" y="1357" type="line"/>
			<point x="376" y="1357" type="line"/>
			<point x="374" y="1141" type="line"/>
			<point x="170" y="1211" type="line"/>
			<point x="150" y="1152" type="line"/>
			<point x="358" y="1080" type="line"/>
			<point x="227" y="902" type="line"/>
			<point x="277" y="869" type="line"/>
			<point x="406" y="1042" type="line"/>
			<point x="526" y="867" type="line"/>
			<point x="576" y="901" type="line"/>
			<point x="456" y="1080" type="line"/>
			<point x="664" y="1152" type="line"/>
		</contour>
	</outline>
</glyph>
<glyph name="plus" format="2">
	<advance width="1085"/>
	<unicode hex="002B"/>
	<outline>
		<contour>
			<point x="554" y="253" type="line"/>
			<point x="554" y="634" type="line"/>
			<point x="933" y="634" type="line"/>
			<point x="933" y="694" type="line"/>
			<point x="554" y="694" type="line"/>
			<point x="554" y="1074" type="line"/>
			<point x="493" y="1074" type="line"/>
			<point x="493" y="694" type="line"/>
			<point x="112" y="694" type="line"/>
			<point x="112" y="634" type="line"/>
			<point x="493" y="634" type="line"/>
			<point x="493" y="253" type="line"/>
		</contour>
	</outline>
</glyph>
<glyph name="comma" format="2">
	<advance width="531"/>
	<unicode hex="002C"/>
	<outline>
		<contour>
			<point x="245" y="176" type="curve"/>
			<point x="245" y="176" type="line"/>
			<point x="181" y="176"/>
			<point x="136" y="133"/>
			<point x="136" y="67" type="curve"/>
			<point x="136" y="21"/>
			<point x="178" y="-29"/>
			<point x="235" y="-30" type="curve"/>
			<point x="250" y="-30"/>
			<point x="266" y="-27"/>
			<point x="283" y="-19" type="curve"/>
			<point x="270" y="-85"/>
			<point x="195" y="-139"/>
			<point x="141" y="-163" type="curve"/>
			<point x="194" y="-210" type="line"/>
			<point x="283" y="-162"/>
			<point x="363" y="-67"/>
			<point x="363" y="56" type="curve"/>
			<point x="363" y="123"/>
			<point x="310" y="176"/>
		</contour>
	</outline>
</glyph>
<glyph name="period" format="2">
	<advance width="630"/>
	<unicode hex="002E"/>
	<outline>
		<contour>
			<point x="294" y="-24" type="curve"/>
			<point x="294" y="-24" type="line"/>
			<point x="347" y="-24"/>
			<point x="389" y="18"/>
			<point x="389" y="70" type="curve"/>
			<point x="389" y="125"/>
			<point x="347" y="166"/>
			<point x="294" y="166" type="curve"/>
			<point x="242" y="166"/>
			<point x="200" y="125"/>
			<point x="200" y="70" type="curve"/>
			<point x="200" y="18"/>
			<point x="242" y="-24"/>
		</contour>
	</outline>
</glyph>
<glyph name="slash" format="2">
	<advance width="922"/>
	<unicode hex="002F"/>
	<outline>
		<contour>
			<point x="800" y="1376" type="line"/>
			<point x="728" y="1376" type="line"/>
			<point x="69" y="-192" type="line"/>
			<point x="141" y="-192" type="line"/>
		</contour>
	</outline>
</glyph>
<glyph name="zero" format="2">
	<advance width="1142"/>
	<unicode hex="0030"/>
	<outline>
		<contour>
			<point x="86" y="659" type="curve"/>
			<point x="86" y="659" type="line"/>
			<point x="86" y="190"/>
			<point x="330" y="-24"/>
			<point x="552" y="-24" type="curve"/>
			<point x="776" y="-24"/>
			<point x="1016" y="190"/>
			<point x="1016" y="659" type="curve"/>
			<point x="1016" y="1138"/>
			<point x="776" y="1344"/>
			<point x="552" y="1344" type="curve"/>
			<point x="330" y="1344"/>
			<point x="86" y="1138"/>
		</contour>
		<contour>
			<point x="154" y="659" type="curve"/>
			<point x="154" y="659" type="line"/>
			<point x="154" y="1077"/>
			<point x="347" y="1280"/>
			<point x="552" y="1280" type="curve"/>
			<point x="757" y="1280"/>
			<point x="949" y="1078"/>
			<point x="949" y="659" type="curve"/>
			<point x="949" y="246"/>
			<point x="757" y="40"/>
			<point x="552" y="40" type="curve"/>
			<point x="347" y="40"/>
			<point x="154" y="246"/>
		</contour>
	</outline>
</glyph>
<glyph name="two" format="2">
	<advance width="1046"/>
	<unicode hex="0032"/>
	<outline>
		<contour>
			<point x="518" y="1280" type="curve"/>
			<point x="518" y="1280" type="line"/>
			<point x="710" y="1280"/>
			<point x="818" y="1198"/>
			<point x="818" y="962" type="curve"/>
			<point x="818" y="658"/>
			<point x="261" y="202"/>
			<point x="85" y="59" type="curve"/>
			<point x="85" y="0" type="line"/>
			<point x="874" y="0" type="line"/>
			<point x="874" y="64" type="line"/>
			<point x="197" y="64" type="line"/>
			<point x="278" y="130"/>
			<point x="885" y="629"/>
			<point x="885" y="963" type="curve"/>
			<point x="885" y="1235"/>
			<point x="736" y="1344"/>
			<point x="518" y="1344" type="curve"/>
			<point x="211" y="1344"/>
			<point x="77" y="1078"/>
			<point x="72" y="1061" type="curve"/>
			<point x="134" y="1037" type="line"/>
			<point x="138" y="1048"/>
			<point x="261" y="1280"/>
		</contour>
	</outline>
</glyph>
<glyph name="four" format="2">
	<advance width="930"/>
	<unicode hex="0034"/>
	<outline>
		<contour>
			<point x="682" y="342" type="line"/>
			<point x="682" y="1320" type="line"/>
			<point x="630" y="1320" type="line"/>
			<point x="53" y="339" type="line"/>
			<point x="53" y="278" type="line"/>
			<point x="618" y="278" type="line"/>
			<point x="618" y="0" type="line"/>
			<point x="682" y="0" type="line"/>
			<point x="682" y="278" type="line"/>
			<point x="832" y="278" type="line"/>
			<point x="832" y="342" type="line"/>
		</contour>
		<contour>
			<point x="618" y="1166" type="line"/>
			<point x="618" y="342" type="line"/>
			<point x="133" y="342" type="line"/>
			<point x="618" y="1166" type="line"/>
		</contour>
	</outline>
</glyph>
<glyph name="six" format="2">
	<advance width="1080"/>
	<unicode hex="0036"/>
	<outline>
		<contour>
			<point x="533" y="843" type="curve"/>
			<point x="533" y="843" type="line"/>
			<point x="398" y="843"/>
			<point x="296" y="794"/>
			<point x="256" y="749" type="curve"/>
			<point x="714" y="1320" type="line"/>
			<point x="632" y="1320" type="line"/>
			<point x="246" y="832" type="line" smooth="yes"/>
			<point x="155" y="717"/>
			<point x="83" y="602"/>
			<point x="83" y="427" type="curve"/>
			<point x="83" y="165"/>
			<point x="269" y="-24"/>
			<point x="517" y="-24" type="curve"/>
			<point x="757" y="-24"/>
			<point x="958" y="160"/>
			<point x="958" y="408" type="curve"/>
			<point x="958" y="656"/>
			<point x="770" y="843"/>
		</contour>
		<contour>
			<point x="523" y="38" type="curve"/>
			<point x="523" y="38" type="line"/>
			<point x="317" y="38"/>
			<point x="150" y="205"/>
			<point x="150" y="411" type="curve"/>
			<point x="150" y="616"/>
			<point x="317" y="782"/>
			<point x="523" y="782" type="curve"/>
			<point x="728" y="782"/>
			<point x="894" y="616"/>
			<point x="894" y="411" type="curve"/>
			<point x="894" y="205"/>
			<point x="728" y="38"/>
		</contour>
	</outline>
</glyph>
<glyph name="seven" format="2">
	<advance width="997"/>
	<unicode hex="0037"/>
	<outline>
		<contour>
			<point x="899" y="1320" type="line"/>
			<point x="128" y="1320" type="line"/>
			<point x="128" y="1256" type="line"/>
			<point x="822" y="1256" type="line"/>
			<point x="107" y="0" type="line"/>
			<point x="182" y="0" type="line"/>
			<point x="899" y="1262" type="line"/>
		</contour>
	</outline>
</glyph>
<glyph name="eight" format="2">
	<advance width="1075"/>
	<unicode hex="0038"/>
	<outline>
		<contour>
			<point x="518" y="-24" type="curve"/>
			<point x="518" y="-24" type="line"/>
			<point x="758" y="-24"/>
			<point x="912" y="149"/>
			<point x="912" y="357" type="curve"/>
			<point x="912" y="562"/>
			<point x="786" y="670"/>
			<point x="651" y="712" type="curve"/>
			<point x="754" y="752"/>
			<point x="853" y="842"/>
			<point x="853" y="1014" type="curve"/>
			<point x="853" y="1206"/>
			<point x="709" y="1344"/>
			<point x="517" y="1344" type="curve"/>
			<point x="325" y="1344"/>
			<point x="179" y="1206"/>
			<point x="179" y="1014" type="curve"/>
			<point x="179" y="842"/>
			<point x="286" y="747"/>
			<point x="382" y="712" type="curve"/>
			<point x="246" y="670"/>
			<point x="122" y="562"/>
			<point x="122" y="357" type="curve"/>
			<point x="122" y="149"/>
			<point x="278" y="-24"/>
		</contour>
		<contour>
			<point x="517" y="40" type="curve"/>
			<point x="517" y="40" type="line"/>
			<point x="334" y="40"/>
			<point x="190" y="178"/>
			<point x="190" y="358" type="curve"/>
			<point x="190" y="539"/>
			<point x="334" y="677"/>
			<point x="517" y="677" type="curve"/>
			<point x="698" y="677"/>
			<point x="843" y="539"/>
			<point x="843" y="358" type="curve"/>
			<point x="843" y="178"/>
			<point x="698" y="40"/>
		</contour>
		<contour>
			<point x="517" y="741" type="curve"/>
			<point x="517" y="741" type="line"/>
			<point x="368" y="741"/>
			<point x="246" y="862"/>
			<point x="246" y="1011" type="curve"/>
			<point x="246" y="1158"/>
			<point x="368" y="1280"/>
			<point x="517" y="1280" type="curve"/>
			<point x="664" y="1280"/>
			<point x="786" y="1158"/>
			<point x="786" y="1011" type="curve"/>
			<point x="786" y="862"/>
			<point x="664" y="741"/>
		</contour>
	</outline>
</glyph>
<glyph name="question" format="2">
	<advance width="891"/>
	<unicode hex="003F"/>
	<outline>
		<contour>
			<point x="390" y="603" type="curve"/>
			<point x="390" y="312" type="line"/>
			<point x="454" y="312" type="line"/>
			<point x="454" y="563" type="line" smooth="yes"/>
			<point x="454" y="637"/>
			<point x="462" y="659"/>
			<point x="514" y="693" type="curve"/>
			<point x="662" y="792"/>
			<point x="781" y="896"/>
			<point x="781" y="1058" type="curve"/>
			<point x="781" y="1227"/>
			<point x="650" y="1344"/>
			<point x="427" y="1344" type="curve"/>
			<point x="202" y="1344"/>
			<point x="77" y="1178"/>
			<point x="66" y="1118" type="curve"/>
			<point x="125" y="1088" type="line"/>
			<point x="144" y="1160"/>
			<point x="251" y="1280"/>
			<point x="426" y="1280" type="curve"/>
			<point x="598" y="1280"/>
			<point x="717" y="1206"/>
			<point x="717" y="1058" type="curve"/>
			<point x="717" y="906"/>
			<point x="582" y="802"/>
			<point x="482" y="739" type="curve"/>
			<point x="422" y="702"/>
			<point x="390" y="677"/>
		</contour>
		<contour>
			<point x="422" y="-24" type="curve"/>
			<point x="422" y="-24" type="line"/>
			<point x="474" y="-24"/>
			<point x="515" y="18"/>
			<point x="515" y="70" type="curve"/>
			<point x="515" y="125"/>
			<point x="474" y="166"/>
			<point x="422" y="166" type="curve"/>
			<point x="370" y="166"/>
			<point x="328" y="125"/>
			<point x="328" y="70" type="curve"/>
			<point x="328" y="18"/>
			<point x="370" y="-24"/>
		</contour>
	</outline>
</glyph>
<glyph name="at" format="2">
	<advance width="1546"/>
	<unicode hex="0040"/>
	<outline>
		<contour>
			<point x="757" y="-24" type="curve"/>
			<point x="757" y="-24" type="line"/>
			<point x="1003" y="-24"/>
			<point x="1187" y="98"/>
			<point x="1258" y="189" type="curve"/>
			<point x="1203" y="232" type="line"/>
			<point x="1142" y="149"/>
			<point x="979" y="37"/>
			<point x="757" y="37" type="curve"/>
			<point x="424" y="37"/>
			<point x="117" y="301"/>
			<point x="117" y="661" type="curve"/>
			<point x="117" y="1024"/>
			<point x="442" y="1283"/>
			<point x="781" y="1283" type="curve"/>
			<point x="1128" y="1283"/>
			<point x="1390" y="1029"/>
			<point x="1390" y="707" type="curve"/>
			<point x="1390" y="490"/>
			<point x="1248" y="400"/>
			<point x="1163" y="400" type="curve"/>
			<point x="1072" y="400"/>
			<point x="1058" y="488"/>
			<point x="1058" y="518" type="curve"/>
			<point x="1058" y="952" type="line"/>
			<point x="994" y="952" type="line"/>
			<point x="994" y="837" type="line"/>
			<point x="987" y="862"/>
			<point x="890" y="976"/>
			<point x="726" y="976" type="curve"/>
			<point x="512" y="976"/>
			<point x="386" y="829"/>
			<point x="386" y="650" type="curve"/>
			<point x="386" y="470"/>
			<point x="512" y="320"/>
			<point x="726" y="320" type="curve"/>
			<point x="880" y="320"/>
			<point x="994" y="416"/>
			<point x="1003" y="496" type="curve"/>
			<point x="1003" y="411"/>
			<point x="1043" y="347"/>
			<point x="1165" y="347" type="curve"/>
			<point x="1301" y="347"/>
			<point x="1454" y="478"/>
			<point x="1454" y="707" type="curve"/>
			<point x="1454" y="1085"/>
			<point x="1155" y="1344"/>
			<point x="781" y="1344" type="curve"/>
			<point x="390" y="1344"/>
			<point x="53" y="1067"/>
			<point x="53" y="661" type="curve"/>
			<point x="53" y="254"/>
			<point x="366" y="-24"/>
		</contour>
		<contour>
			<point x="726" y="379" type="curve"/>
			<point x="726" y="379" type="line"/>
			<point x="557" y="379"/>
			<point x="450" y="499"/>
			<point x="450" y="650" type="curve"/>
			<point x="450" y="803"/>
			<point x="566" y="917"/>
			<point x="726" y="917" type="curve"/>
			<point x="875" y="917"/>
			<point x="995" y="811"/>
			<point x="995" y="658" type="curve"/>
			<point x="995" y="507"/>
			<point x="898" y="379"/>
		</contour>
	</outline>
</glyph>
<glyph name="B" format="2">
	<advance width="1021"/>
	<unicode hex="0042"/>
	<anchor x="491" y="1320" name="top"/>
	<anchor x="491" y="0" name="bottom"/>
	<outline>
		<contour>
			<point x="421" y="1320" type="curve"/>
			<point x="126" y="1320" type="line"/>
			<point x="126" y="0" type="line"/>
			<point x="514" y="0" type="line" smooth="yes"/>
			<point x="787" y="0"/>
			<point x="899" y="155"/>
			<point x="899" y="368" type="curve"/>
			<point x="899" y="582"/>
			<point x="701" y="678"/>
			<point x="624" y="682" type="curve"/>
			<point x="701" y="688"/>
			<point x="829" y="829"/>
			<point x="829" y="1005" type="curve"/>
			<point x="829" y="1254"/>
			<point x="629" y="1320"/>
		</contour>
		<contour>
			<point x="542" y="62" type="curve"/>
			<point x="187" y="62" type="line"/>
			<point x="187" y="643" type="line"/>
			<point x="522" y="643" type="line" smooth="yes"/>
			<point x="728" y="643"/>
			<point x="837" y="517"/>
			<point x="837" y="360" type="curve"/>
			<point x="837" y="219"/>
			<point x="784" y="62"/>
		</contour>
		<contour>
			<point x="493" y="704" type="curve"/>
			<point x="187" y="704" type="line"/>
			<point x="187" y="1258" type="line"/>
			<point x="453" y="1258" type="line" smooth="yes"/>
			<point x="642" y="1258"/>
			<point x="766" y="1187"/>
			<point x="766" y="997" type="curve"/>
			<point x="766" y="867"/>
			<point x="682" y="704"/>
		</contour>
	</outline>
</glyph>
<glyph name="C" format="2">
	<advance width="1056"/>
	<unicode hex="0043"/>
	<anchor x="627" y="1320" name="top"/>
	<anchor x="627" y="0" name="bottom"/>
	<outline>
		<contour>
			<point x="925" y="1213" type="curve"/>
			<point x="925" y="1213" type="line"/>
			<point x="925" y="1283" type="line"/>
			<point x="872" y="1318"/>
			<point x="787" y="1344"/>
			<point x="651" y="1344" type="curve"/>
			<point x="286" y="1344"/>
			<point x="48" y="1046"/>
			<point x="48" y="661" type="curve"/>
			<point x="48" y="275"/>
			<point x="258" y="-24"/>
			<point x="651" y="-24" type="curve"/>
			<point x="784" y="-24"/>
			<point x="886" y="14"/>
			<point x="925" y="45" type="curve"/>
			<point x="925" y="114" type="line"/>
			<point x="890" y="91"/>
			<point x="806" y="38"/>
			<point x="651" y="38" type="curve"/>
			<point x="363" y="38"/>
			<point x="114" y="272"/>
			<point x="114" y="661" type="curve"/>
			<point x="114" y="1050"/>
			<point x="378" y="1282"/>
			<point x="651" y="1282" type="curve"/>
			<point x="811" y="1282"/>
			<point x="894" y="1232"/>
		</contour>
	</outline>
</glyph>
<glyph name="H" format="2">
	<advance width="1211"/>
	<unicode hex="0048"/>
	<anchor x="586" y="826" name="center"/>
	<anchor x="586" y="1320" name="top"/>
	<anchor x="118" y="1320" name="topleft"/>
	<anchor x="586" y="-165" name="bottom"/>
	<outline>
		<contour>
			<point x="195" y="630" type="line"/>
			<point x="978" y="630" type="line"/>
			<point x="978" y="0" type="line"/>
			<point x="1038" y="0" type="line"/>
			<point x="1038" y="1320" type="line"/>
			<point x="978" y="1320" type="line"/>
			<point x="978" y="694" type="line"/>
			<point x="195" y="694" type="line"/>
			<point x="195" y="1320" type="line"/>
			<point x="134" y="1320" type="line"/>
			<point x="134" y="0" type="line"/>
			<point x="195" y="0" type="line"/>
		</contour>
	</outline>
</glyph>
<glyph name="I" format="2">
	<advance width="405"/>
	<unicode hex="0049"/>
	<anchor x="299" y="16" name="ogonek"/>
	<anchor x="182" y="1320" name="top"/>
	<anchor x="67" y="1320" name="topleft"/>
	<anchor x="182" y="0" name="bottom"/>
	<outline>
		<contour>
			<point x="216" y="1320" type="line"/>
			<point x="152" y="1320" type="line"/>
			<point x="152" y="0" type="line"/>
			<point x="216" y="0" type="line"/>
		</contour>
	</outline>
</glyph>
<glyph name="J" format="2">
	<advance width="742"/>
	<unicode hex="004A"/>
	<anchor x="582" y="1320" name="top"/>
	<anchor x="368" y="0" name="bottom"/>
	<outline>
		<contour>
			<point x="614" y="397" type="curve"/>
			<point x="614" y="397" type="line"/>
			<point x="614" y="1320" type="line"/>
			<point x="552" y="1320" type="line"/>
			<point x="552" y="386" type="line" smooth="yes"/>
			<point x="552" y="203"/>
			<point x="496" y="38"/>
			<point x="290" y="38" type="curve"/>
			<point x="117" y="38"/>
			<point x="56" y="131"/>
			<point x="37" y="170" type="curve"/>
			<point x="-6" y="118" type="line"/>
			<point x="10" y="83"/>
			<point x="93" y="-24"/>
			<point x="290" y="-24" type="curve"/>
			<point x="522" y="-24"/>
			<point x="614" y="138"/>
		</contour>
	</outline>
</glyph>
<glyph name="L" format="2">
	<advance width="864"/>
	<unicode hex="004C"/>
	<anchor x="131" y="826" name="center"/>
	<anchor x="413" y="1320" name="top"/>
	<anchor x="763" y="1320" name="topright"/>
	<anchor x="434" y="0" name="bottom"/>
	<outline>
		<contour>
			<point x="189" y="1320" type="line"/>
			<point x="126" y="1320" type="line"/>
			<point x="126" y="0" type="line"/>
			<point x="742" y="0" type="line"/>
			<point x="742" y="64" type="line"/>
			<point x="189" y="64" type="line"/>
		</contour>
	</outline>
</glyph>
<glyph name="N" format="2">
	<advance width="1280"/>
	<unicode hex="004E"/>
	<anchor x="661" y="1320" name="top"/>
	<anchor x="661" y="0" name="bottom"/>
	<outline>
		<contour>
			<point x="197" y="1253" type="line"/>
			<point x="195" y="1253" type="line"/>
			<point x="1006" y="0" type="line"/>
			<point x="1107" y="0" type="line"/>
			<point x="1107" y="1320" type="line"/>
			<point x="1045" y="1320" type="line"/>
			<point x="1045" y="67" type="line"/>
			<point x="1046" y="67" type="line"/>
			<point x="235" y="1320" type="line"/>
			<point x="134" y="1320" type="line"/>
			<point x="134" y="0" type="line"/>
			<point x="197" y="0" type="line"/>
		</contour>
	</outline>
</glyph>
<glyph name="O" format="2">
	<advance width="1411"/>
	<unicode hex="004F"/>
	<anchor x="686" y="826" name="center"/>
	<anchor x="1021" y="16" name="ogonek"/>
	<anchor x="686" y="1320" name="top"/>
	<anchor x="1075" y="1202" name="topright"/>
	<anchor x="75" y="1320" name="topleft"/>
	<anchor x="686" y="-165" name="bottom"/>
	<outline>
		<contour>
			<point x="112" y="661" type="curve"/>
			<point x="112" y="661" type="line"/>
			<point x="112" y="1013"/>
			<point x="354" y="1280"/>
			<point x="686" y="1280" type="curve"/>
			<point x="1019" y="1280"/>
			<point x="1258" y="1013"/>
			<point x="1258" y="661" type="curve"/>
			<point x="1258" y="309"/>
			<point x="1019" y="40"/>
			<point x="686" y="40" type="curve"/>
			<point x="354" y="40"/>
			<point x="112" y="309"/>
		</contour>
		<contour>
			<point x="48" y="661" type="curve"/>
			<point x="48" y="661" type="line"/>
			<point x="48" y="275"/>
			<point x="323" y="-24"/>
			<point x="686" y="-24" type="curve"/>
			<point x="1050" y="-24"/>
			<point x="1322" y="275"/>
			<point x="1322" y="661" type="curve"/>
			<point x="1322" y="1046"/>
			<point x="1050" y="1344"/>
			<point x="686" y="1344" type="curve"/>
			<point x="323" y="1344"/>
			<point x="48" y="1046"/>
		</contour>
	</outline>
</glyph>
<glyph name="Q" format="2">
	<advance width="1379"/>
	<unicode hex="0051"/>
	<outline>
		<contour>
			<point x="1064" y="-90" type="curve"/>
			<point x="1064" y="-90" type="line"/>
			<point x="918" y="-90"/>
			<point x="822" y="0"/>
			<point x="675" y="0" type="curve"/>
			<point x="558" y="0"/>
			<point x="485" y="-43"/>
			<point x="397" y="-109" type="curve"/>
			<point x="448" y="-165" type="line"/>
			<point x="454" y="-158"/>
			<point x="550" y="-64"/>
			<point x="672" y="-64" type="curve"/>
			<point x="819" y="-64"/>
			<point x="883" y="-157"/>
			<point x="1059" y="-157" type="curve"/>
			<point x="1197" y="-157"/>
			<point x="1269" y="-110"/>
			<point x="1296" y="-93" type="curve"/>
			<point x="1250" y="-34" type="line"/>
			<point x="1245" y="-40"/>
			<point x="1179" y="-90"/>
		</contour>
		<component base="O"/>
	</outline>
</glyph>
<glyph name="R" format="2">
	<advance width="1046"/>
	<unicode hex="0052"/>
	<anchor x="480" y="1320" name="top"/>
	<anchor x="480" y="0" name="bottom"/>
	<outline>
		<contour>
			<point x="534" y="1320" type="curve"/>
			<point x="138" y="1320" type="line"/>
			<point x="138" y="0" type="line"/>
			<point x="200" y="0" type="line"/>
			<point x="200" y="586" type="line"/>
			<point x="533" y="586" type="line"/>
			<point x="856" y="0" type="line"/>
			<point x="930" y="0" type="line"/>
			<point x="597" y="590" type="line"/>
			<point x="722" y="590"/>
			<point x="910" y="714"/>
			<point x="910" y="954" type="curve"/>
			<point x="910" y="1194"/>
			<point x="734" y="1320"/>
		</contour>
		<contour>
			<point x="514" y="646" type="curve"/>
			<point x="200" y="646" type="line"/>
			<point x="200" y="1256" type="line"/>
			<point x="514" y="1256" type="line" smooth="yes"/>
			<point x="714" y="1256"/>
			<point x="846" y="1162"/>
			<point x="846" y="954" type="curve"/>
			<point x="846" y="746"/>
			<point x="714" y="646"/>
		</contour>
	</outline>
</glyph>
<glyph name="S" format="2">
	<advance width="1003"/>
	<unicode hex="0053"/>
	<anchor x="482" y="1320" name="top"/>
	<anchor x="482" y="0" name="bottom"/>
	<outline>
		<contour>
			<point x="485" y="1344" type="curve"/>
			<point x="485" y="1344" type="line"/>
			<point x="272" y="1344"/>
			<point x="115" y="1219"/>
			<point x="115" y="1053" type="curve"/>
			<point x="115" y="880"/>
			<point x="259" y="790"/>
			<point x="446" y="699" type="curve"/>
			<point x="621" y="614"/>
			<point x="819" y="517"/>
			<point x="819" y="326" type="curve"/>
			<point x="819" y="162"/>
			<point x="698" y="40"/>
			<point x="472" y="40" type="curve"/>
			<point x="269" y="40"/>
			<point x="147" y="131"/>
			<point x="112" y="158" type="curve"/>
			<point x="67" y="99" type="line"/>
			<point x="77" y="90"/>
			<point x="250" y="-24"/>
			<point x="467" y="-24" type="curve"/>
			<point x="723" y="-24"/>
			<point x="888" y="126"/>
			<point x="888" y="322" type="curve"/>
			<point x="888" y="557"/>
			<point x="670" y="664"/>
			<point x="498" y="746" type="curve"/>
			<point x="325" y="827"/>
			<point x="184" y="907"/>
			<point x="184" y="1051" type="curve"/>
			<point x="184" y="1194"/>
			<point x="299" y="1280"/>
			<point x="488" y="1280" type="curve"/>
			<point x="664" y="1280"/>
			<point x="757" y="1200"/>
			<point x="787" y="1173" type="curve"/>
			<point x="827" y="1229" type="line"/>
			<point x="814" y="1245"/>
			<point x="698" y="1344"/>
		</contour>
	</outline>
</glyph>
<glyph name="U" format="2">
	<advance width="1218"/>
	<unicode hex="0055"/>
	<anchor x="1006" y="16" name="ogonek"/>
	<anchor x="594" y="1320" name="top"/>
	<anchor x="1074" y="1320" name="topright"/>
	<anchor x="594" y="0" name="bottom"/>
	<outline>
		<contour>
			<point x="1074" y="1320" type="line"/>
			<point x="1011" y="1320" type="line"/>
			<point x="1011" y="496" type="line" smooth="yes"/>
			<point x="1011" y="222"/>
			<point x="824" y="40"/>
			<point x="594" y="40" type="curve"/>
			<point x="363" y="40"/>
			<point x="174" y="222"/>
			<point x="174" y="496" type="curve"/>
			<point x="174" y="1320" type="line"/>
			<point x="112" y="1320" type="line"/>
			<point x="112" y="493" type="line" smooth="yes"/>
			<point x="112" y="166"/>
			<point x="333" y="-24"/>
			<point x="594" y="-24" type="curve"/>
			<point x="854" y="-24"/>
			<point x="1074" y="166"/>
			<point x="1074" y="493" type="curve"/>
		</contour>
	</outline>
</glyph>
<glyph name="V" format="2">
	<advance width="1166"/>
	<unicode hex="0056"/>
	<anchor x="563" y="1320" name="top"/>
	<anchor x="563" y="0" name="bottom"/>
	<outline>
		<contour>
			<point x="520" y="0" type="line"/>
			<point x="606" y="0" type="line"/>
			<point x="1102" y="1320" type="line"/>
			<point x="1032" y="1320" type="line"/>
			<point x="563" y="61" type="line"/>
			<point x="96" y="1320" type="line"/>
			<point x="26" y="1320" type="line"/>
		</contour>
	</outline>
</glyph>
<glyph name="W" format="2">
	<advance width="1493"/>
	<unicode hex="0057"/>
	<anchor x="726" y="1320" name="top"/>
	<anchor x="726" y="0" name="bottom"/>
	<outline>
		<contour>
			<point x="1035" y="0" type="line"/>
			<point x="1128" y="0" type="line"/>
			<point x="1386" y="1320" type="line"/>
			<point x="1317" y="1320" type="line"/>
			<point x="1080" y="78" type="line"/>
			<point x="1082" y="78" type="line"/>
			<point x="763" y="1320" type="line"/>
			<point x="667" y="1320" type="line"/>
			<point x="349" y="78" type="line"/>
			<point x="350" y="78" type="line"/>
			<point x="114" y="1320" type="line"/>
			<point x="45" y="1320" type="line"/>
			<point x="302" y="0" type="line"/>
			<point x="395" y="0" type="line"/>
			<point x="723" y="1290" type="line"/>
			<point x="707" y="1290" type="line"/>
		</contour>
	</outline>
</glyph>
<glyph name="X" format="2">
	<advance width="1096"/>
	<unicode hex="0058"/>
	<anchor x="528" y="1320" name="top"/>
	<anchor x="528" y="0" name="bottom"/>
	<outline>
		<contour>
			<point x="1048" y="0" type="line"/>
			<point x="579" y="710" type="line"/>
			<point x="1000" y="1320" type="line"/>
			<point x="923" y="1320" type="line"/>
			<point x="531" y="760" type="line"/>
			<point x="134" y="1320" type="line"/>
			<point x="58" y="1320" type="line"/>
			<point x="483" y="710" type="line"/>
			<point x="10" y="0" type="line"/>
			<point x="86" y="0" type="line"/>
			<point x="531" y="661" type="line"/>
			<point x="971" y="0" type="line"/>
		</contour>
	</outline>
</glyph>
<glyph name="Y" format="2">
	<advance width="1026"/>
	<unicode hex="0059"/>
	<anchor x="493" y="1320" name="top"/>
	<anchor x="493" y="0" name="bottom"/>
	<anchor x="75" y="1320" name="topleft"/>
	<outline>
		<contour>
			<point x="27" y="1320" type="line"/>
			<point x="461" y="475" type="line"/>
			<point x="461" y="0" type="line"/>
			<point x="525" y="0" type="line"/>
			<point x="525" y="475" type="line"/>
			<point x="957" y="1320" type="line"/>
			<point x="883" y="1320" type="line"/>
			<point x="493" y="554" type="line"/>
			<point x="101" y="1320" type="line"/>
		</contour>
	</outline>
</glyph>
<glyph name="Z" format="2">
	<advance width="1107"/>
	<unicode hex="005A"/>
	<anchor x="534" y="1320" name="top"/>
	<anchor x="534" y="0" name="bottom"/>
	<outline>
		<contour>
			<point x="1003" y="1320" type="line"/>
			<point x="157" y="1320" type="line"/>
			<point x="157" y="1256" type="line"/>
			<point x="886" y="1256" type="line"/>
			<point x="64" y="0" type="line"/>
			<point x="960" y="0" type="line"/>
			<point x="960" y="64" type="line"/>
			<point x="187" y="64" type="line"/>
		</contour>
	</outline>
</glyph>
<glyph name="backslash" format="2">
	<advance width="922"/>
	<unicode hex="005C"/>
	<outline>
		<contour>
			<point x="739" y="0" type="line"/>
			<point x="813" y="0" type="line"/>
			<point x="154" y="1376" type="line"/>
			<point x="80" y="1376" type="line"/>
		</contour>
	</outline>
</glyph>
<glyph name="grave" format="2">
	<advance width="693"/>
	<unicode hex="0060"/>
	<outline>
		<contour>
			<point x="170" y="1202" type="line"/>
			<point x="478" y="1002" type="line"/>
			<point x="517" y="1051" type="line"/>
			<point x="229" y="1277" type="line"/>
		</contour>
	</outline>
</glyph>
<glyph name="c" format="2">
	<advance width="811"/>
	<unicode hex="0063"/>
	<anchor x="386" y="821" name="top"/>
	<anchor x="386" y="0" name="bottom"/>
	<outline>
		<contour>
			<point x="461" y="40" type="curve"/>
			<point x="461" y="40" type="line"/>
			<point x="306" y="40"/>
			<point x="133" y="171"/>
			<point x="133" y="411" type="curve"/>
			<point x="133" y="651"/>
			<point x="306" y="781"/>
			<point x="461" y="781" type="curve"/>
			<point x="589" y="781"/>
			<point x="659" y="715"/>
			<point x="677" y="698" type="curve"/>
			<point x="715" y="754" type="line"/>
			<point x="698" y="771"/>
			<point x="600" y="845"/>
			<point x="453" y="845" type="curve"/>
			<point x="277" y="845"/>
			<point x="69" y="704"/>
			<point x="69" y="411" type="curve"/>
			<point x="69" y="118"/>
			<point x="277" y="-24"/>
			<point x="453" y="-24" type="curve"/>
			<point x="600" y="-24"/>
			<point x="710" y="42"/>
			<point x="722" y="53" type="curve"/>
			<point x="683" y="109" type="line"/>
			<point x="667" y="96"/>
			<point x="589" y="40"/>
		</contour>
	</outline>
</glyph>
<glyph name="e" format="2">
	<advance width="919"/>
	<unicode hex="0065"/>
	<anchor x="786" y="16" name="ogonek"/>
	<anchor x="446" y="0" name="bottom"/>
	<anchor x="446" y="821" name="top"/>
	<outline>
		<contour>
			<point x="126" y="416" type="curve"/>
			<point x="126" y="416" type="line"/>
			<point x="819" y="416" type="line"/>
			<point x="819" y="426"/>
			<point x="821" y="438"/>
			<point x="821" y="450" type="curve"/>
			<point x="821" y="678"/>
			<point x="675" y="845"/>
			<point x="453" y="845" type="curve"/>
			<point x="203" y="845"/>
			<point x="58" y="661"/>
			<point x="58" y="421" type="curve"/>
			<point x="58" y="178"/>
			<point x="197" y="-24"/>
			<point x="456" y="-24" type="curve"/>
			<point x="626" y="-24"/>
			<point x="725" y="43"/>
			<point x="806" y="174" type="curve"/>
			<point x="747" y="214" type="line"/>
			<point x="720" y="152"/>
			<point x="640" y="38"/>
			<point x="459" y="38" type="curve"/>
			<point x="232" y="38"/>
			<point x="126" y="222"/>
		</contour>
		<contour>
			<point x="750" y="480" type="curve"/>
			<point x="750" y="480" type="line"/>
			<point x="131" y="480" type="line"/>
			<point x="142" y="616"/>
			<point x="216" y="782"/>
			<point x="453" y="782" type="curve"/>
			<point x="677" y="782"/>
			<point x="746" y="610"/>
		</contour>
	</outline>
</glyph>
<glyph name="f" format="2">
	<advance width="610"/>
	<unicode hex="0066"/>
	<anchor x="285" y="1440" name="top"/>
	<anchor x="285" y="0" name="bottom"/>
	<outline>
		<contour>
			<point x="229" y="821" type="line"/>
			<point x="34" y="821" type="line"/>
			<point x="34" y="758" type="line"/>
			<point x="229" y="758" type="line"/>
			<point x="229" y="0" type="line"/>
			<point x="291" y="0" type="line"/>
			<point x="291" y="758" type="line"/>
			<point x="550" y="758" type="line"/>
			<point x="550" y="821" type="line"/>
			<point x="291" y="821" type="line"/>
			<point x="291" y="1054" type="line" smooth="yes"/>
			<point x="291" y="1298"/>
			<point x="382" y="1339"/>
			<point x="466" y="1339" type="curve"/>
			<point x="542" y="1339"/>
			<point x="582" y="1307"/>
			<point x="590" y="1301" type="curve"/>
			<point x="621" y="1357" type="line"/>
			<point x="614" y="1362"/>
			<point x="563" y="1400"/>
			<point x="472" y="1400" type="curve"/>
			<point x="357" y="1400"/>
			<point x="229" y="1326"/>
			<point x="229" y="1067" type="curve"/>
		</contour>
	</outline>
</glyph>
<glyph name="h" format="2">
	<advance width="970"/>
	<unicode hex="0068"/>
	<anchor x="450" y="720" name="center"/>
	<anchor x="450" y="0" name="bottom"/>
	<anchor x="450" y="1440" name="top"/>
	<outline>
		<contour>
			<point x="498" y="845" type="curve"/>
			<point x="498" y="845" type="line"/>
			<point x="342" y="845"/>
			<point x="214" y="725"/>
			<point x="203" y="653" type="curve"/>
			<point x="203" y="1376" type="line"/>
			<point x="136" y="1376" type="line"/>
			<point x="136" y="0" type="line"/>
			<point x="203" y="0" type="line"/>
			<point x="203" y="464" type="line" smooth="yes"/>
			<point x="203" y="642"/>
			<point x="352" y="781"/>
			<point x="496" y="781" type="curve"/>
			<point x="640" y="781"/>
			<point x="744" y="702"/>
			<point x="744" y="501" type="curve"/>
			<point x="744" y="0" type="line"/>
			<point x="810" y="0" type="line"/>
			<point x="810" y="522" type="line" smooth="yes"/>
			<point x="810" y="750"/>
			<point x="648" y="845"/>
		</contour>
	</outline>
</glyph>
<glyph name="j" format="2">
	<advance width="427"/>
	<unicode hex="006A"/>
	<outline>
		<contour>
			<point x="51" y="-440" type="curve"/>
			<point x="51" y="-440" type="line"/>
			<point x="203" y="-440"/>
			<point x="246" y="-323"/>
			<point x="246" y="-126" type="curve"/>
			<point x="246" y="821" type="line"/>
			<point x="182" y="821" type="line"/>
			<point x="182" y="-88" type="line" smooth="yes"/>
			<point x="182" y="-259"/>
			<point x="168" y="-376"/>
			<point x="50" y="-376" type="curve"/>
			<point x="-6" y="-376"/>
			<point x="-24" y="-362"/>
			<point x="-38" y="-349" type="curve"/>
			<point x="-78" y="-403" type="line"/>
			<point x="-61" y="-419"/>
			<point x="-13" y="-440"/>
		</contour>
		<contour>
			<point x="221" y="1197" type="curve"/>
			<point x="221" y="1197" type="line"/>
			<point x="258" y="1197"/>
			<point x="286" y="1226"/>
			<point x="286" y="1262" type="curve"/>
			<point x="286" y="1298"/>
			<point x="258" y="1328"/>
			<point x="221" y="1328" type="curve"/>
			<point x="184" y="1328"/>
			<point x="155" y="1298"/>
			<point x="155" y="1262" type="curve"/>
			<point x="155" y="1226"/>
			<point x="184" y="1197"/>
		</contour>
	</outline>
</glyph>
<glyph name="k" format="2">
	<advance width="723"/>
	<unicode hex="006B"/>
	<anchor x="336" y="1440" name="top"/>
	<anchor x="336" y="0" name="bottom"/>
	<outline>
		<contour>
			<point x="672" y="821" type="line"/>
			<point x="576" y="821" type="line"/>
			<point x="160" y="462" type="line"/>
			<point x="160" y="1376" type="line"/>
			<point x="96" y="1376" type="line"/>
			<point x="96" y="0" type="line"/>
			<point x="160" y="0" type="line"/>
			<point x="160" y="392" type="line"/>
			<point x="595" y="0" type="line"/>
			<point x="691" y="0" type="line"/>
			<point x="218" y="430" type="line"/>
		</contour>
	</outline>
</glyph>
<glyph name="l" format="2">
	<advance width="373"/>
	<unicode hex="006C"/>
	<anchor x="166" y="901" name="center"/>
	<anchor x="166" y="1440" name="top"/>
	<anchor x="264" y="1440" name="topright"/>
	<anchor x="166" y="0" name="bottom"/>
	<outline>
		<contour>
			<point x="134" y="0" type="line"/>
			<point x="200" y="0" type="line"/>
			<point x="200" y="1376" type="line"/>
			<point x="134" y="1376" type="line"/>
		</contour>
	</outline>
</glyph>
<glyph name="m" format="2">
	<advance width="1424"/>
	<unicode hex="006D"/>
	<anchor x="693" y="821" name="top"/>
	<anchor x="693" y="0" name="bottom"/>
	<outline>
		<contour>
			<point x="986" y="845" type="curve"/>
			<point x="986" y="845" type="line"/>
			<point x="834" y="845"/>
			<point x="728" y="731"/>
			<point x="699" y="632" type="curve"/>
			<point x="690" y="707"/>
			<point x="616" y="845"/>
			<point x="464" y="845" type="curve"/>
			<point x="317" y="845"/>
			<point x="222" y="750"/>
			<point x="203" y="688" type="curve"/>
			<point x="203" y="821" type="line"/>
			<point x="139" y="821" type="line"/>
			<point x="139" y="0" type="line"/>
			<point x="203" y="0" type="line"/>
			<point x="203" y="448" type="line" smooth="yes"/>
			<point x="203" y="696"/>
			<point x="334" y="779"/>
			<point x="450" y="779" type="curve"/>
			<point x="574" y="779"/>
			<point x="664" y="680"/>
			<point x="664" y="448" type="curve"/>
			<point x="664" y="0" type="line"/>
			<point x="728" y="0" type="line"/>
			<point x="728" y="448" type="line" smooth="yes"/>
			<point x="728" y="690"/>
			<point x="866" y="779"/>
			<point x="981" y="779" type="curve"/>
			<point x="1136" y="779"/>
			<point x="1190" y="680"/>
			<point x="1190" y="448" type="curve"/>
			<point x="1190" y="0" type="line"/>
			<point x="1254" y="0" type="line"/>
			<point x="1254" y="474" type="line" smooth="yes"/>
			<point x="1254" y="725"/>
			<point x="1166" y="845"/>
		</contour>
	</outline>
</glyph>
<glyph name="n" format="2">
	<advance width="954"/>
	<unicode hex="006E"/>
	<anchor x="442" y="821" name="top"/>
	<anchor x="442" y="0" name="bottom"/>
	<outline>
		<contour>
			<point x="493" y="845" type="curve"/>
			<point x="493" y="845" type="line"/>
			<point x="339" y="845"/>
			<point x="210" y="725"/>
			<point x="198" y="653" type="curve"/>
			<point x="198" y="821" type="line"/>
			<point x="134" y="821" type="line"/>
			<point x="134" y="0" type="line"/>
			<point x="198" y="0" type="line"/>
			<point x="198" y="464" type="line" smooth="yes"/>
			<point x="198" y="642"/>
			<point x="347" y="781"/>
			<point x="491" y="781" type="curve"/>
			<point x="635" y="781"/>
			<point x="739" y="702"/>
			<point x="739" y="501" type="curve"/>
			<point x="739" y="0" type="line"/>
			<point x="805" y="0" type="line"/>
			<point x="805" y="522" type="line" smooth="yes"/>
			<point x="805" y="750"/>
			<point x="643" y="845"/>
		</contour>
	</outline>
</glyph>
<glyph name="o" format="2">
	<advance width="978"/>
	<unicode hex="006F"/>
	<anchor x="469" y="514" name="center"/>
	<anchor x="822" y="16" name="ogonek"/>
	<anchor x="469" y="821" name="top"/>
	<anchor x="678" y="781" name="topright"/>
	<anchor x="469" y="-102" name="bottom"/>
	<outline>
		<contour>
			<point x="470" y="-24" type="curve"/>
			<point x="470" y="-24" type="line"/>
			<point x="710" y="-24"/>
			<point x="880" y="168"/>
			<point x="880" y="408" type="curve"/>
			<point x="880" y="648"/>
			<point x="710" y="845"/>
			<point x="470" y="845" type="curve"/>
			<point x="230" y="845"/>
			<point x="58" y="648"/>
			<point x="58" y="408" type="curve"/>
			<point x="58" y="168"/>
			<point x="230" y="-24"/>
		</contour>
		<contour>
			<point x="470" y="40" type="curve"/>
			<point x="470" y="40" type="line"/>
			<point x="262" y="40"/>
			<point x="122" y="200"/>
			<point x="122" y="408" type="curve"/>
			<point x="122" y="616"/>
			<point x="262" y="781"/>
			<point x="470" y="781" type="curve"/>
			<point x="678" y="781"/>
			<point x="816" y="616"/>
			<point x="816" y="408" type="curve"/>
			<point x="816" y="200"/>
			<point x="678" y="40"/>
		</contour>
	</outline>
</glyph>
<glyph name="t" format="2">
	<advance width="608"/>
	<unicode hex="0074"/>
	<anchor x="264" y="514" name="center"/>
	<anchor x="285" y="1085" name="top"/>
	<anchor x="507" y="821" name="topright"/>
	<anchor x="408" y="-8" name="bottom"/>
	<outline>
		<contour>
			<point x="232" y="821" type="line"/>
			<point x="53" y="821" type="line"/>
			<point x="53" y="757" type="line"/>
			<point x="232" y="757" type="line"/>
			<point x="232" y="186" type="line" smooth="yes"/>
			<point x="232" y="38"/>
			<point x="310" y="-24"/>
			<point x="408" y="-24" type="curve"/>
			<point x="491" y="-24"/>
			<point x="536" y="13"/>
			<point x="546" y="24" type="curve"/>
			<point x="507" y="77" type="line"/>
			<point x="502" y="70"/>
			<point x="472" y="40"/>
			<point x="410" y="40" type="curve"/>
			<point x="349" y="40"/>
			<point x="296" y="80"/>
			<point x="296" y="202" type="curve"/>
			<point x="296" y="757" type="line"/>
			<point x="530" y="757" type="line"/>
			<point x="530" y="821" type="line"/>
			<point x="296" y="821" type="line"/>
			<point x="296" y="1158" type="line"/>
			<point x="232" y="1158" type="line"/>
		</contour>
	</outline>
</glyph>
<glyph name="v" format="2">
	<advance width="904"/>
	<unicode hex="0076"/>
	<anchor x="432" y="821" name="top"/>
	<anchor x="432" y="0" name="bottom"/>
	<outline>
		<contour>
			<point x="104" y="821" type="line"/>
			<point x="35" y="821" type="line"/>
			<point x="394" y="0" type="line"/>
			<point x="470" y="0" type="line"/>
			<point x="827" y="821" type="line"/>
			<point x="758" y="821" type="line"/>
			<point x="432" y="64" type="line"/>
		</contour>
	</outline>
</glyph>
<glyph name="x" format="2">
	<advance width="942"/>
	<unicode hex="0078"/>
	<anchor x="451" y="821" name="top"/>
	<anchor x="451" y="0" name="bottom"/>
	<outline>
		<contour>
			<point x="856" y="0" type="line"/>
			<point x="494" y="429" type="line"/>
			<point x="819" y="821" type="line"/>
			<point x="736" y="821" type="line"/>
			<point x="451" y="474" type="line"/>
			<point x="168" y="821" type="line"/>
			<point x="85" y="821" type="line"/>
			<point x="408" y="429" type="line"/>
			<point x="48" y="0" type="line"/>
			<point x="131" y="0" type="line"/>
			<point x="451" y="389" type="line"/>
			<point x="773" y="0" type="line"/>
		</contour>
	</outline>
</glyph>
<glyph name="braceleft" format="2">
	<advance width="674"/>
	<unicode hex="007B"/>
	<outline>
		<contour>
			<point x="126" y="514" type="curve"/>
			<point x="126" y="514" type="line"/>
			<point x="126" y="448" type="line"/>
			<point x="235" y="448"/>
			<point x="259" y="374"/>
			<point x="259" y="301" type="curve"/>
			<point x="259" y="-206" type="line" smooth="yes"/>
			<point x="259" y="-342"/>
			<point x="293" y="-416"/>
			<point x="434" y="-416" type="curve"/>
			<point x="509" y="-416" type="line"/>
			<point x="509" y="-352" type="line"/>
			<point x="434" y="-352" type="line" smooth="yes"/>
			<point x="341" y="-352"/>
			<point x="325" y="-302"/>
			<point x="325" y="-243" type="curve"/>
			<point x="325" y="309" type="line" smooth="yes"/>
			<point x="325" y="397"/>
			<point x="283" y="469"/>
			<point x="208" y="478" type="curve"/>
			<point x="283" y="486"/>
			<point x="325" y="562"/>
			<point x="325" y="651" type="curve"/>
			<point x="325" y="1203" type="line" smooth="yes"/>
			<point x="325" y="1280"/>
			<point x="358" y="1312"/>
			<point x="434" y="1312" type="curve"/>
			<point x="509" y="1312" type="line"/>
			<point x="509" y="1376" type="line"/>
			<point x="434" y="1376" type="line" smooth="yes"/>
			<point x="293" y="1376"/>
			<point x="259" y="1302"/>
			<point x="259" y="1166" type="curve"/>
			<point x="259" y="659" type="line" smooth="yes"/>
			<point x="259" y="586"/>
			<point x="235" y="514"/>
		</contour>
	</outline>
</glyph>
<glyph name="bar" format="2">
	<advance width="349"/>
	<unicode hex="007C"/>
	<outline>
		<contour>
			<point x="123" y="-242" type="line"/>
			<point x="184" y="-242" type="line"/>
			<point x="184" y="1408" type="line"/>
			<point x="123" y="1408" type="line"/>
		</contour>
	</outline>
</glyph>
<glyph name="asciitilde" format="2">
	<advance width="1182"/>
	<unicode hex="007E"/>
	<outline>
		<contour>
			<point x="1030" y="736" type="curve"/>
			<point x="1030" y="736" type="line"/>
			<point x="963" y="763" type="line"/>
			<point x="934" y="694"/>
			<point x="862" y="605"/>
			<point x="765" y="605" type="curve"/>
			<point x="624" y="605"/>
			<point x="557" y="789"/>
			<point x="381" y="789" type="curve"/>
			<point x="251" y="789"/>
			<point x="152" y="677"/>
			<point x="112" y="594" type="curve"/>
			<point x="186" y="565" type="line"/>
			<point x="213" y="634"/>
			<point x="285" y="725"/>
			<point x="381" y="725" type="curve"/>
			<point x="523" y="725"/>
			<point x="590" y="541"/>
			<point x="762" y="541" type="curve"/>
			<point x="891" y="541"/>
			<point x="990" y="653"/>
		</contour>
	</outline>
</glyph>
<glyph name="yen" format="2">
	<advance width="1026"/>
	<unicode hex="00A5"/>
	<outline>
		<contour>
			<point x="912" y="576" type="line"/>
			<point x="74" y="576" type="line"/>
			<point x="74" y="514" type="line"/>
			<point x="912" y="514" type="line"/>
		</contour>
		<contour>
			<point x="912" y="370" type="line"/>
			<point x="74" y="370" type="line"/>
			<point x="74" y="307" type="line"/>
			<point x="912" y="307" type="line"/>
		</contour>
		<component base="Y"/>
	</outline>
</glyph>
<glyph name="dieresis" format="2">
	<advance width="970"/>
	<unicode hex="00A8"/>
	<outline>
		<contour>
			<point x="275" y="1192" type="curve"/>
			<point x="275" y="1192" type="line"/>
			<point x="235" y="1192"/>
			<point x="202" y="1157"/>
			<point x="202" y="1118" type="curve"/>
			<point x="202" y="1080"/>
			<point x="235" y="1045"/>
			<point x="275" y="1045" type="curve"/>
			<point x="314" y="1045"/>
			<point x="349" y="1078"/>
			<point x="349" y="1118" type="curve"/>
			<point x="349" y="1158"/>
			<point x="314" y="1192"/>
		</contour>
		<contour>
			<point x="654" y="1192" type="curve"/>
			<point x="654" y="1192" type="line"/>
			<point x="614" y="1192"/>
			<point x="581" y="1157"/>
			<point x="581" y="1118" type="curve"/>
			<point x="581" y="1080"/>
			<point x="614" y="1045"/>
			<point x="654" y="1045" type="curve"/>
			<point x="693" y="1045"/>
			<point x="728" y="1078"/>
			<point x="728" y="1118" type="curve"/>
			<point x="728" y="1158"/>
			<point x="693" y="1192"/>
		</contour>
	</outline>
</glyph>
<glyph name="ordfeminine" format="2">
	<advance width="818"/>
	<unicode hex="00AA"/>
	<outline>
		<contour>
			<point x="138" y="1075" type="curve"/>
			<point x="138" y="1075" type="line"/>
			<point x="138" y="899"/>
			<point x="259" y="805"/>
			<point x="395" y="805" type="curve"/>
			<point x="504" y="805"/>
			<point x="571" y="875"/>
			<point x="571" y="899" type="curve"/>
			<point x="573" y="899" type="line"/>
			<point x="573" y="821" type="line"/>
			<point x="642" y="821" type="line"/>
			<point x="642" y="1328" type="line"/>
			<point x="571" y="1330" type="line"/>
			<point x="571" y="1253" type="line"/>
			<point x="570" y="1282"/>
			<point x="502" y="1344"/>
			<point x="395" y="1344" type="curve"/>
			<point x="259" y="1344"/>
			<point x="138" y="1250"/>
		</contour>
		<contour>
			<point x="202" y="1075" type="curve"/>
			<point x="202" y="1075" type="line"/>
			<point x="202" y="1202"/>
			<point x="290" y="1275"/>
			<point x="381" y="1275" type="curve"/>
			<point x="485" y="1275"/>
			<point x="574" y="1192"/>
			<point x="574" y="1075" type="curve"/>
			<point x="574" y="960"/>
			<point x="488" y="874"/>
			<point x="381" y="874" type="curve"/>
			<point x="291" y="874"/>
			<point x="202" y="947"/>
		</contour>
	</outline>
</glyph>
<glyph name="guillemotleft" format="2">
	<advance width="928"/>
	<unicode hex="00AB"/>
	<outline>
		<contour>
			<point x="365" y="91" type="line"/>
			<point x="403" y="123" type="line"/>
			<point x="144" y="445" type="line"/>
			<point x="403" y="768" type="line"/>
			<point x="365" y="797" type="line"/>
			<point x="86" y="445" type="line"/>
		</contour>
		<contour>
			<point x="728" y="91" type="line"/>
			<point x="768" y="123" type="line"/>
			<point x="509" y="445" type="line"/>
			<point x="768" y="768" type="line"/>
			<point x="728" y="797" type="line"/>
			<point x="451" y="445" type="line"/>
		</contour>
	</outline>
</glyph>
<glyph name="registered" format="2">
	<advance width="862"/>
	<unicode hex="00AE"/>
	<outline>
		<contour>
			<point x="53" y="984" type="curve"/>
			<point x="53" y="984" type="line"/>
			<point x="53" y="787"/>
			<point x="214" y="627"/>
			<point x="410" y="627" type="curve"/>
			<point x="610" y="627"/>
			<point x="770" y="787"/>
			<point x="770" y="984" type="curve"/>
			<point x="770" y="1182"/>
			<point x="610" y="1344"/>
			<point x="410" y="1344" type="curve"/>
			<point x="214" y="1344"/>
			<point x="53" y="1182"/>
		</contour>
		<contour>
			<point x="106" y="984" type="curve"/>
			<point x="106" y="984" type="line"/>
			<point x="106" y="1154"/>
			<point x="243" y="1291"/>
			<point x="410" y="1291" type="curve"/>
			<point x="582" y="1291"/>
			<point x="717" y="1154"/>
			<point x="717" y="984" type="curve"/>
			<point x="717" y="814"/>
			<point x="582" y="680"/>
			<point x="410" y="680" type="curve"/>
			<point x="243" y="680"/>
			<point x="106" y="814"/>
		</contour>
		<contour>
			<point x="418" y="1152" type="curve"/>
			<point x="318" y="1152" type="line"/>
			<point x="318" y="821" type="line"/>
			<point x="368" y="821" type="line"/>
			<point x="368" y="952" type="line"/>
			<point x="416" y="952" type="line"/>
			<point x="485" y="821" type="line"/>
			<point x="539" y="821" type="line"/>
			<point x="462" y="958" type="line"/>
			<point x="502" y="973"/>
			<point x="526" y="1003"/>
			<point x="526" y="1054" type="curve"/>
			<point x="526" y="1118"/>
			<point x="480" y="1152"/>
		</contour>
		<contour>
			<point x="410" y="992" type="curve"/>
			<point x="368" y="992" type="line"/>
			<point x="368" y="1106" type="line"/>
			<point x="403" y="1106" type="line" smooth="yes"/>
			<point x="443" y="1106"/>
			<point x="477" y="1101"/>
			<point x="477" y="1054" type="curve"/>
			<point x="477" y="1008"/>
			<point x="451" y="992"/>
		</contour>
	</outline>
</glyph>
<glyph name="macron" format="2">
	<advance width="949"/>
	<unicode hex="00AF"/>
	<outline>
		<contour>
			<point x="189" y="1142" type="line"/>
			<point x="189" y="1078" type="line"/>
			<point x="722" y="1078" type="line"/>
			<point x="722" y="1142" type="line"/>
		</contour>
	</outline>
</glyph>
<glyph name="paragraph" format="2">
	<advance width="941"/>
	<unicode hex="00B6"/>
	<outline>
		<contour>
			<point x="702" y="0" type="line"/>
			<point x="757" y="0" type="line"/>
			<point x="757" y="1320" type="line"/>
			<point x="466" y="1320" type="line" smooth="yes"/>
			<point x="189" y="1320"/>
			<point x="86" y="1139"/>
			<point x="86" y="994" type="curve"/>
			<point x="86" y="850"/>
			<point x="189" y="650"/>
			<point x="466" y="650" type="curve"/>
			<point x="520" y="650" type="line"/>
			<point x="520" y="0" type="line"/>
			<point x="574" y="0" type="line"/>
			<point x="574" y="1254" type="line"/>
			<point x="702" y="1254" type="line"/>
		</contour>
	</outline>
</glyph>
<glyph name="cedilla" format="2">
	<advance width="786"/>
	<unicode hex="00B8"/>
	<outline>
		<contour>
			<point x="405" y="14" type="line"/>
			<point x="350" y="42" type="line"/>
			<point x="274" y="-178" type="line"/>
			<point x="315" y="-200" type="line"/>
			<point x="334" y="-194"/>
			<point x="374" y="-186"/>
			<point x="416" y="-186" type="curve"/>
			<point x="477" y="-186"/>
			<point x="517" y="-211"/>
			<point x="517" y="-266" type="curve"/>
			<point x="517" y="-322"/>
			<point x="454" y="-358"/>
			<point x="376" y="-358" type="curve"/>
			<point x="318" y="-358"/>
			<point x="262" y="-333"/>
			<point x="237" y="-314" type="curve"/>
			<point x="194" y="-368" type="line"/>
			<point x="227" y="-390"/>
			<point x="301" y="-419"/>
			<point x="376" y="-419" type="curve"/>
			<point x="472" y="-419"/>
			<point x="586" y="-365"/>
			<point x="586" y="-253" type="curve"/>
			<point x="586" y="-138"/>
			<point x="432" y="-117"/>
			<point x="350" y="-146" type="curve"/>
		</contour>
	</outline>
</glyph>
<glyph name="ordmasculine" format="2">
	<advance width="842"/>
	<unicode hex="00BA"/>
	<outline>
		<contour>
			<point x="136" y="1074" type="curve"/>
			<point x="136" y="1074" type="line"/>
			<point x="136" y="918"/>
			<point x="259" y="806"/>
			<point x="403" y="806" type="curve"/>
			<point x="538" y="806"/>
			<point x="666" y="918"/>
			<point x="666" y="1074" type="curve"/>
			<point x="666" y="1232"/>
			<point x="531" y="1344"/>
			<point x="403" y="1344" type="curve"/>
			<point x="272" y="1344"/>
			<point x="136" y="1232"/>
		</contour>
		<contour>
			<point x="208" y="1074" type="curve"/>
			<point x="208" y="1074" type="line"/>
			<point x="208" y="1197"/>
			<point x="306" y="1283"/>
			<point x="402" y="1283" type="curve"/>
			<point x="498" y="1283"/>
			<point x="597" y="1197"/>
			<point x="597" y="1074" type="curve"/>
			<point x="597" y="954"/>
			<point x="502" y="866"/>
			<point x="402" y="866" type="curve"/>
			<point x="296" y="866"/>
			<point x="208" y="954"/>
		</contour>
	</outline>
</glyph>
<glyph name="Eth" format="2">
	<advance width="1229"/>
	<unicode hex="00D0"/>
	<outline>
		<contour>
			<point x="531" y="1320" type="curve"/>
			<point x="531" y="1320" type="line"/>
			<point x="288" y="1320" type="line"/>
			<point x="288" y="683" type="line"/>
			<point x="53" y="683" type="line"/>
			<point x="53" y="638" type="line"/>
			<point x="288" y="638" type="line"/>
			<point x="288" y="0" type="line"/>
			<point x="531" y="0" type="line" smooth="yes"/>
			<point x="954" y="0"/>
			<point x="1126" y="275"/>
			<point x="1126" y="661" type="curve"/>
			<point x="1126" y="1045"/>
			<point x="950" y="1320"/>
		</contour>
		<contour>
			<point x="496" y="69" type="curve"/>
			<point x="496" y="69" type="line"/>
			<point x="349" y="69" type="line"/>
			<point x="349" y="638" type="line"/>
			<point x="600" y="638" type="line"/>
			<point x="600" y="683" type="line"/>
			<point x="349" y="683" type="line"/>
			<point x="349" y="1251" type="line"/>
			<point x="496" y="1251" type="line" smooth="yes"/>
			<point x="885" y="1251"/>
			<point x="1072" y="1043"/>
			<point x="1070" y="650" type="curve"/>
			<point x="1069" y="278"/>
			<point x="875" y="69"/>
		</contour>
	</outline>
</glyph>
<glyph name="multiply" format="2">
	<advance width="982"/>
	<unicode hex="00D7"/>
	<outline>
		<contour>
			<point x="819" y="362" type="line"/>
			<point x="515" y="664" type="line"/>
			<point x="818" y="966" type="line"/>
			<point x="774" y="1010" type="line"/>
			<point x="474" y="707" type="line"/>
			<point x="171" y="1010" type="line"/>
			<point x="128" y="966" type="line"/>
			<point x="430" y="664" type="line"/>
			<point x="126" y="362" type="line"/>
			<point x="170" y="318" type="line"/>
			<point x="474" y="621" type="line"/>
			<point x="776" y="318" type="line"/>
		</contour>
	</outline>
</glyph>
<glyph name="Oslash" format="2">
	<advance width="1379"/>
	<unicode hex="00D8"/>
	<outline>
		<contour>
			<point x="1338" y="1266" type="line"/>
			<point x="1293" y="1307" type="line"/>
			<point x="24" y="21" type="line"/>
			<point x="69" y="-21" type="line"/>
		</contour>
		<component base="O"/>
	</outline>
</glyph>
<glyph name="ae" format="2">
	<advance width="1412"/>
	<unicode hex="00E6"/>
	<anchor x="686" y="821" name="top"/>
	<anchor x="686" y="0" name="bottom"/>
	<outline>
		<contour>
			<point x="366" y="-24" type="curve"/>
			<point x="366" y="-24" type="line"/>
			<point x="525" y="-24"/>
			<point x="638" y="98"/>
			<point x="659" y="158" type="curve"/>
			<point x="694" y="62"/>
			<point x="826" y="-24"/>
			<point x="973" y="-24" type="curve"/>
			<point x="1142" y="-24"/>
			<point x="1259" y="102"/>
			<point x="1299" y="171" type="curve"/>
			<point x="1242" y="208" type="line"/>
			<point x="1222" y="168"/>
			<point x="1130" y="40"/>
			<point x="979" y="40" type="curve"/>
			<point x="778" y="40"/>
			<point x="696" y="165"/>
			<point x="696" y="392" type="curve"/>
			<point x="1312" y="392" type="line"/>
			<point x="1312" y="402"/>
			<point x="1314" y="398"/>
			<point x="1314" y="410" type="curve"/>
			<point x="1314" y="698"/>
			<point x="1182" y="845"/>
			<point x="973" y="845" type="curve"/>
			<point x="822" y="845"/>
			<point x="699" y="720"/>
			<point x="677" y="624" type="curve"/>
			<point x="646" y="722"/>
			<point x="562" y="845"/>
			<point x="382" y="845" type="curve"/>
			<point x="245" y="845"/>
			<point x="142" y="784"/>
			<point x="102" y="739" type="curve"/>
			<point x="152" y="677" type="line"/>
			<point x="187" y="722"/>
			<point x="275" y="781"/>
			<point x="382" y="781" type="curve"/>
			<point x="464" y="781"/>
			<point x="626" y="728"/>
			<point x="626" y="478" type="curve"/>
			<point x="626" y="427" type="line"/>
			<point x="608" y="450"/>
			<point x="515" y="517"/>
			<point x="373" y="517" type="curve"/>
			<point x="205" y="517"/>
			<point x="58" y="413"/>
			<point x="58" y="250" type="curve"/>
			<point x="58" y="59"/>
			<point x="203" y="-24"/>
		</contour>
		<contour>
			<point x="357" y="40" type="curve"/>
			<point x="357" y="40" type="line"/>
			<point x="224" y="42"/>
			<point x="123" y="128"/>
			<point x="123" y="248" type="curve"/>
			<point x="123" y="382"/>
			<point x="261" y="453"/>
			<point x="381" y="453" type="curve"/>
			<point x="518" y="453"/>
			<point x="626" y="379"/>
			<point x="626" y="259" type="curve"/>
			<point x="626" y="154"/>
			<point x="512" y="38"/>
		</contour>
		<contour>
			<point x="1240" y="453" type="curve"/>
			<point x="704" y="453" type="line"/>
			<point x="717" y="653"/>
			<point x="811" y="781"/>
			<point x="979" y="781" type="curve"/>
			<point x="1208" y="781"/>
			<point x="1238" y="539"/>
		</contour>
	</outline>
</glyph>
<glyph name="divide" format="2">
	<advance width="1005"/>
	<unicode hex="00F7"/>
	<outline>
		<contour>
			<point x="480" y="1037" type="curve"/>
			<point x="480" y="1037" type="line"/>
			<point x="442" y="1037"/>
			<point x="410" y="1005"/>
			<point x="410" y="963" type="curve"/>
			<point x="410" y="925"/>
			<point x="442" y="893"/>
			<point x="480" y="893" type="curve"/>
			<point x="522" y="893"/>
			<point x="554" y="925"/>
			<point x="554" y="963" type="curve"/>
			<point x="554" y="1003"/>
			<point x="522" y="1037"/>
		</contour>
		<contour>
			<point x="122" y="690" type="line"/>
			<point x="122" y="629" type="line"/>
			<point x="843" y="629" type="line"/>
			<point x="843" y="690" type="line"/>
		</contour>
		<contour>
			<point x="480" y="434" type="curve"/>
			<point x="480" y="434" type="line"/>
			<point x="442" y="434"/>
			<point x="410" y="402"/>
			<point x="410" y="360" type="curve"/>
			<point x="410" y="322"/>
			<point x="443" y="291"/>
			<point x="480" y="291" type="curve"/>
			<point x="520" y="291"/>
			<point x="554" y="322"/>
			<point x="554" y="360" type="curve"/>
			<point x="554" y="402"/>
			<point x="522" y="434"/>
		</contour>
	</outline>
</glyph>
<glyph name="oslash" format="2">
	<advance width="978"/>
	<unicode hex="00F8"/>
	<outline>
		<contour>
			<point x="902" y="806" type="line"/>
			<point x="858" y="848" type="line"/>
			<point x="42" y="21" type="line"/>
			<point x="86" y="-21" type="line"/>
		</contour>
		<component base="o"/>
	</outline>
</glyph>
<glyph name="Dcroat" format="2">
	<advance width="1229"/>
	<unicode hex="0110"/>
	<outline>
		<contour>
			<point x="288" y="638" type="line"/>
			<point x="288" y="0" type="line"/>
			<point x="531" y="0" type="line" smooth="yes"/>
			<point x="954" y="0"/>
			<point x="1126" y="275"/>
			<point x="1126" y="661" type="curve"/>
			<point x="1126" y="1045"/>
			<point x="952" y="1320"/>
			<point x="531" y="1320" type="curve"/>
			<point x="288" y="1320" type="line"/>
			<point x="288" y="683" type="line"/>
			<point x="53" y="683" type="line"/>
			<point x="53" y="638" type="line"/>
		</contour>
		<contour>
			<point x="496" y="69" type="curve"/>
			<point x="349" y="69" type="line"/>
			<point x="349" y="638" type="line"/>
			<point x="600" y="638" type="line"/>
			<point x="600" y="683" type="line"/>
			<point x="349" y="683" type="line"/>
			<point x="349" y="1251" type="line"/>
			<point x="496" y="1251" type="line" smooth="yes"/>
			<point x="872" y="1251"/>
			<point x="1072" y="1056"/>
			<point x="1070" y="650" type="curve"/>
			<point x="1069" y="288"/>
			<point x="885" y="69"/>
		</contour>
	</outline>
</glyph>
<glyph name="dcroat" format="2">
	<advance width="989"/>
	<unicode hex="0111"/>
	<outline>
		<contour>
			<point x="573" y="1107" type="line"/>
			<point x="573" y="1045" type="line"/>
			<point x="992" y="1045" type="line"/>
			<point x="992" y="1107" type="line"/>
		</contour>
		<component base="d"/>
	</outline>
</glyph>
<glyph name="Hbar" format="2">
	<advance width="1115"/>
	<unicode hex="0126"/>
	<outline>
		<contour>
			<point x="1048" y="1069" type="line"/>
			<point x="29" y="1069" type="line"/>
			<point x="29" y="1006" type="line"/>
			<point x="1048" y="1006" type="line"/>
		</contour>
		<component base="H"/>
	</outline>
</glyph>
<glyph name="hbar" format="2">
	<advance width="970"/>
	<unicode hex="0127"/>
	<outline>
		<contour>
			<point x="22" y="1107" type="line"/>
			<point x="22" y="1045" type="line"/>
			<point x="442" y="1045" type="line"/>
			<point x="442" y="1107" type="line"/>
		</contour>
		<component base="h"/>
	</outline>
</glyph>
<glyph name="dotlessi" format="2">
	<advance width="339"/>
	<unicode hex="0131"/>
	<anchor x="240" y="16" name="ogonek"/>
	<anchor x="150" y="0" name="bottom"/>
	<anchor x="150" y="821" name="top"/>
	<outline>
		<contour>
			<point x="118" y="821" type="line"/>
			<point x="118" y="0" type="line"/>
			<point x="182" y="0" type="line"/>
			<point x="182" y="821" type="line"/>
		</contour>
	</outline>
</glyph>
<glyph name="kgreenlandic" format="2">
	<advance width="734"/>
	<unicode hex="0138"/>
	<anchor x="410" y="821" name="top"/>
	<anchor x="410" y="0" name="bottom"/>
	<outline>
		<contour>
			<point x="701" y="0" type="line"/>
			<point x="285" y="424" type="line"/>
			<point x="669" y="821" type="line"/>
			<point x="586" y="821" type="line"/>
			<point x="214" y="430" type="line"/>
			<point x="214" y="821" type="line"/>
			<point x="150" y="821" type="line"/>
			<point x="150" y="0" type="line"/>
			<point x="214" y="0" type="line"/>
			<point x="214" y="406" type="line"/>
			<point x="616" y="0" type="line"/>
		</contour>
	</outline>
</glyph>
<glyph name="lslash" format="2">
	<advance width="458"/>
	<unicode hex="0142"/>
	<outline>
		<contour>
			<point x="163" y="608" type="line"/>
			<point x="163" y="0" type="line"/>
			<point x="229" y="0" type="line"/>
			<point x="229" y="661" type="line"/>
			<point x="344" y="750" type="line"/>
			<point x="344" y="858" type="line"/>
			<point x="229" y="768" type="line"/>
			<point x="229" y="1376" type="line"/>
			<point x="163" y="1376" type="line"/>
			<point x="163" y="715" type="line"/>
			<point x="74" y="645" type="line"/>
			<point x="74" y="538" type="line"/>
		</contour>
	</outline>
</glyph>
<glyph name="OE" format="2">
	<advance width="1542"/>
	<unicode hex="0152"/>
	<anchor x="752" y="1320" name="top"/>
	<anchor x="752" y="0" name="bottom"/>
	<outline>
		<contour>
			<point x="677" y="0" type="curve"/>
			<point x="677" y="0" type="line"/>
			<point x="1390" y="0" type="line"/>
			<point x="1390" y="64" type="line"/>
			<point x="797" y="64" type="line"/>
			<point x="797" y="630" type="line"/>
			<point x="1371" y="630" type="line"/>
			<point x="1371" y="694" type="line"/>
			<point x="797" y="694" type="line"/>
			<point x="797" y="1256" type="line"/>
			<point x="1390" y="1256" type="line"/>
			<point x="1390" y="1320" type="line"/>
			<point x="677" y="1320" type="line" smooth="yes"/>
			<point x="314" y="1320"/>
			<point x="70" y="1046"/>
			<point x="70" y="661" type="curve"/>
			<point x="70" y="275"/>
			<point x="280" y="0"/>
		</contour>
		<contour>
			<point x="736" y="58" type="line"/>
			<point x="667" y="58" type="line"/>
			<point x="315" y="58"/>
			<point x="136" y="330"/>
			<point x="136" y="661" type="curve"/>
			<point x="136" y="992"/>
			<point x="333" y="1266"/>
			<point x="667" y="1266" type="curve"/>
			<point x="736" y="1266" type="line"/>
		</contour>
	</outline>
</glyph>
<glyph name="tbar" format="2">
	<advance width="608"/>
	<unicode hex="0167"/>
	<outline>
		<contour>
			<point x="531" y="549" type="line"/>
			<point x="54" y="549" type="line"/>
			<point x="54" y="485" type="line"/>
			<point x="531" y="485" type="line"/>
		</contour>
		<component base="t"/>
	</outline>
</glyph>
<glyph name="uni018F" format="2">
	<advance width="1316"/>
	<unicode hex="018F"/>
	<outline>
		<contour>
			<point x="624" y="-13" type="curve"/>
			<point x="624" y="-13" type="line"/>
			<point x="1002" y="-13"/>
			<point x="1227" y="294"/>
			<point x="1227" y="686" type="curve"/>
			<point x="1227" y="1106"/>
			<point x="987" y="1344"/>
			<point x="632" y="1344" type="curve"/>
			<point x="350" y="1344"/>
			<point x="144" y="1165"/>
			<point x="94" y="1050" type="curve"/>
			<point x="154" y="1010" type="line"/>
			<point x="181" y="1074"/>
			<point x="336" y="1282"/>
			<point x="629" y="1282" type="curve"/>
			<point x="952" y="1282"/>
			<point x="1158" y="1061"/>
			<point x="1158" y="691" type="curve"/>
			<point x="50" y="691" type="line"/>
			<point x="50" y="682"/>
			<point x="48" y="669"/>
			<point x="48" y="658" type="curve"/>
			<point x="48" y="293"/>
			<point x="274" y="-13"/>
		</contour>
		<contour>
			<point x="624" y="51" type="curve"/>
			<point x="624" y="51" type="line"/>
			<point x="304" y="51"/>
			<point x="118" y="346"/>
			<point x="118" y="627" type="curve"/>
			<point x="1154" y="627" type="line"/>
			<point x="1154" y="339"/>
			<point x="968" y="51"/>
		</contour>
	</outline>
</glyph>
<glyph name="uni0237" format="2">
	<advance width="427"/>
	<unicode hex="0237"/>
	<anchor x="214" y="821" name="top"/>
	<anchor x="214" y="-416" name="bottom"/>
	<outline>
		<contour>
			<point x="51" y="-440" type="curve"/>
			<point x="51" y="-440" type="line"/>
			<point x="203" y="-440"/>
			<point x="246" y="-323"/>
			<point x="246" y="-126" type="curve"/>
			<point x="246" y="821" type="line"/>
			<point x="182" y="821" type="line"/>
			<point x="182" y="-88" type="line" smooth="yes"/>
			<point x="182" y="-259"/>
			<point x="168" y="-376"/>
			<point x="50" y="-376" type="curve"/>
			<point x="-6" y="-376"/>
			<point x="-24" y="-362"/>
			<point x="-38" y="-349" type="curve"/>
			<point x="-78" y="-403" type="line"/>
			<point x="-61" y="-419"/>
			<point x="-13" y="-440"/>
		</contour>
	</outline>
</glyph>
<glyph name="circumflex" format="2">
	<advance width="1003"/>
	<unicode hex="02C6"/>
	<outline>
		<contour>
			<point x="229" y="1126" type="line"/>
			<point x="278" y="1061" type="line"/>
			<point x="483" y="1211" type="line"/>
			<point x="690" y="1059" type="line"/>
			<point x="738" y="1125" type="line"/>
			<point x="483" y="1312" type="line"/>
		</contour>
	</outline>
</glyph>
<glyph name="dotaccent" format="2">
	<advance width="590"/>
	<unicode hex="02D9"/>
	<outline>
		<contour>
			<point x="275" y="1192" type="curve"/>
			<point x="275" y="1192" type="line"/>
			<point x="235" y="1192"/>
			<point x="202" y="1157"/>
			<point x="202" y="1118" type="curve"/>
			<point x="202" y="1080"/>
			<point x="235" y="1045"/>
			<point x="275" y="1045" type="curve"/>
			<point x="314" y="1045"/>
			<point x="349" y="1078"/>
			<point x="349" y="1118" type="curve"/>
			<point x="349" y="1158"/>
			<point x="314" y="1192"/>
		</contour>
	</outline>
</glyph>
<glyph name="ogonek" format="2">
	<advance width="717"/>
	<unicode hex="02DB"/>
	<outline>
		<contour>
			<point x="330" y="-421" type="curve"/>
			<point x="330" y="-421" type="line"/>
			<point x="421" y="-421"/>
			<point x="518" y="-376"/>
			<point x="549" y="-325" type="curve"/>
			<point x="494" y="-283" type="line"/>
			<point x="469" y="-320"/>
			<point x="414" y="-360"/>
			<point x="349" y="-360" type="curve"/>
			<point x="274" y="-360"/>
			<point x="210" y="-336"/>
			<point x="210" y="-245" type="curve"/>
			<point x="210" y="-163"/>
			<point x="301" y="-58"/>
			<point x="366" y="0" type="curve"/>
			<point x="323" y="40" type="line"/>
			<point x="243" y="-24"/>
			<point x="136" y="-144"/>
			<point x="136" y="-250" type="curve"/>
			<point x="136" y="-389"/>
			<point x="246" y="-421"/>
		</contour>
	</outline>
</glyph>
<glyph name="hookabovecomb" format="2">
	<advance width="0"/>
	<unicode hex="0309"/>
	<anchor x="-579" y="1338" name="top"/>
	<anchor x="-579" y="821" name="_top"/>
	<outline>
		<contour>
			<point x="-594" y="878" type="curve"/>
			<point x="-632" y="930" type="line"/>
			<point x="-576" y="944"/>
			<point x="-448" y="1003"/>
			<point x="-448" y="1120" type="curve"/>
			<point x="-448" y="1237"/>
			<point x="-536" y="1243"/>
			<point x="-597" y="1243" type="curve"/>
			<point x="-654" y="1243"/>
			<point x="-738" y="1214"/>
			<point x="-778" y="1194" type="curve"/>
			<point x="-778" y="1258" type="line"/>
			<point x="-754" y="1274"/>
			<point x="-685" y="1306"/>
			<point x="-578" y="1306" type="curve"/>
			<point x="-477" y="1306"/>
			<point x="-381" y="1267"/>
			<point x="-381" y="1128" type="curve"/>
			<point x="-381" y="981"/>
			<point x="-507" y="915"/>
		</contour>
	</outline>
</glyph>
<glyph name="uni031B" format="2">
	<advance width="0"/>
	<unicode hex="031B"/>
	<anchor x="-726" y="1064" name="_topright"/>
	<anchor x="-459" y="1285" name="topright"/>
	<outline>
		<contour>
			<point x="-619" y="976" type="curve"/>
			<point x="-619" y="976" type="line"/>
			<point x="-514" y="976"/>
			<point x="-434" y="1072"/>
			<point x="-434" y="1163" type="curve"/>
			<point x="-434" y="1232"/>
			<point x="-448" y="1266"/>
			<point x="-459" y="1285" type="curve"/>
			<point x="-522" y="1285" type="line"/>
			<point x="-506" y="1248"/>
			<point x="-498" y="1226"/>
			<point x="-498" y="1168" type="curve"/>
			<point x="-498" y="1098"/>
			<point x="-541" y="1030"/>
			<point x="-627" y="1030" type="curve"/>
			<point x="-667" y="1030"/>
			<point x="-706" y="1046"/>
			<point x="-726" y="1064" type="curve"/>
			<point x="-726" y="1008" type="line"/>
			<point x="-696" y="990"/>
			<point x="-658" y="976"/>
		</contour>
	</outline>
</glyph>
<glyph name="emdash" format="2">
	<advance width="1576"/>
	<unicode hex="2014"/>
	<outline>
		<contour>
			<point x="43" y="486" type="line"/>
			<point x="43" y="426" type="line"/>
			<point x="1491" y="426" type="line"/>
			<point x="1491" y="486" type="line"/>
		</contour>
	</outline>
</glyph>
<glyph name="quoteleft" format="2">
	<advance width="424"/>
	<unicode hex="2018"/>
	<outline>
		<contour>
			<point x="210" y="923" type="curve"/>
			<point x="210" y="923" type="line"/>
			<point x="283" y="923"/>
			<point x="336" y="971"/>
			<point x="336" y="1045" type="curve"/>
			<point x="336" y="1099"/>
			<point x="293" y="1141"/>
			<point x="238" y="1141" type="curve"/>
			<point x="205" y="1141"/>
			<point x="173" y="1125"/>
			<point x="163" y="1109" type="curve"/>
			<point x="166" y="1162"/>
			<point x="222" y="1240"/>
			<point x="274" y="1259" type="curve"/>
			<point x="237" y="1317" type="line"/>
			<point x="174" y="1280"/>
			<point x="83" y="1198"/>
			<point x="83" y="1064" type="curve"/>
			<point x="83" y="976"/>
			<point x="138" y="923"/>
		</contour>
	</outline>
</glyph>
<glyph name="quotesinglbase" format="2">
	<advance width="459"/>
	<unicode hex="201A"/>
	<outline>
		<contour>
			<point x="229" y="176" type="curve"/>
			<point x="229" y="176" type="line"/>
			<point x="165" y="176"/>
			<point x="120" y="133"/>
			<point x="120" y="67" type="curve"/>
			<point x="120" y="21"/>
			<point x="162" y="-30"/>
			<point x="219" y="-30" type="curve"/>
			<point x="234" y="-30"/>
			<point x="250" y="-27"/>
			<point x="267" y="-19" type="curve"/>
			<point x="254" y="-85"/>
			<point x="179" y="-139"/>
			<point x="125" y="-163" type="curve"/>
			<point x="178" y="-210" type="line"/>
			<point x="267" y="-162"/>
			<point x="347" y="-67"/>
			<point x="347" y="56" type="curve"/>
			<point x="347" y="123"/>
			<point x="294" y="176"/>
		</contour>
	</outline>
</glyph>
<glyph name="bullet" format="2">
	<advance width="949"/>
	<unicode hex="2022"/>
	<outline>
		<contour>
			<point x="453" y="717" type="curve"/>
			<point x="453" y="717" type="line"/>
			<point x="373" y="717"/>
			<point x="309" y="653"/>
			<point x="309" y="570" type="curve"/>
			<point x="309" y="490"/>
			<point x="373" y="426"/>
			<point x="453" y="426" type="curve"/>
			<point x="536" y="426"/>
			<point x="600" y="490"/>
			<point x="600" y="570" type="curve"/>
			<point x="600" y="653"/>
			<point x="536" y="717"/>
		</contour>
	</outline>
</glyph>
<glyph name="fraction" format="2">
	<advance width="398"/>
	<unicode hex="2044"/>
	<outline>
		<contour>
			<point x="574" y="1320" type="line"/>
			<point x="528" y="1320" type="line"/>
			<point x="-240" y="0" type="line"/>
			<point x="-194" y="0" type="line"/>
		</contour>
	</outline>
</glyph>
<glyph name="Euro" format="2">
	<advance width="1299"/>
	<unicode hex="20AC"/>
	<outline>
		<contour>
			<point x="1029" y="822" type="line"/>
			<point x="34" y="822" type="line"/>
			<point x="34" y="762" type="line"/>
			<point x="1029" y="762" type="line"/>
		</contour>
		<contour>
			<point x="1029" y="555" type="line"/>
			<point x="34" y="555" type="line"/>
			<point x="34" y="494" type="line"/>
			<point x="1029" y="494" type="line"/>
		</contour>
		<component base="C.ss01" xOffset="75"/>
	</outline>
</glyph>
<glyph name="uni20BA" format="2">
	<advance width="864"/>
	<unicode hex="20BA"/>
	<outline>
		<contour>
			<point x="189" y="1320" type="line"/>
			<point x="126" y="1320" type="line"/>
			<point x="126" y="0" type="line"/>
			<point x="256" y="0" type="line"/>
			<point x="666" y="0"/>
			<point x="790" y="224"/>
			<point x="790" y="427" type="curve"/>
			<point x="726" y="427" type="line"/>
			<point x="726" y="226"/>
			<point x="621" y="64"/>
			<point x="189" y="64" type="curve"/>
		</contour>
		<contour>
			<point x="-21" y="710" type="line"/>
			<point x="-21" y="650" type="line"/>
			<point x="629" y="864" type="line"/>
			<point x="629" y="925" type="line"/>
		</contour>
		<contour>
			<point x="-21" y="499" type="line"/>
			<point x="-21" y="438" type="line"/>
			<point x="629" y="653" type="line"/>
			<point x="629" y="714" type="line"/>
		</contour>
	</outline>
</glyph>
<glyph name="uni20BC" format="2">
	<advance width="962"/>
	<unicode hex="20BC"/>
	<outline>
		<contour>
			<point x="117" y="858" type="curve"/>
			<point x="117" y="0" type="line"/>
			<point x="181" y="0" type="line"/>
			<point x="181" y="840" type="line" smooth="yes"/>
			<point x="181" y="1048"/>
			<point x="275" y="1179"/>
			<point x="461" y="1179" type="curve"/>
			<point x="646" y="1179"/>
			<point x="741" y="1048"/>
			<point x="741" y="840" type="curve"/>
			<point x="741" y="0" type="line"/>
			<point x="805" y="0" type="line"/>
			<point x="805" y="858" type="line" smooth="yes"/>
			<point x="805" y="1077"/>
			<point x="682" y="1243"/>
			<point x="461" y="1243" type="curve"/>
			<point x="240" y="1243"/>
			<point x="117" y="1077"/>
		</contour>
		<contour>
			<point x="427" y="1376" type="line"/>
			<point x="427" y="0" type="line"/>
			<point x="488" y="0" type="line"/>
			<point x="488" y="1376" type="line"/>
		</contour>
	</outline>
</glyph>
<glyph name="uni2116" format="2">
	<advance width="2258"/>
	<unicode hex="2116"/>
	<outline>
		<contour>
			<point x="2165" y="66" type="line"/>
			<point x="1330" y="66" type="line"/>
			<point x="1330" y="0" type="line"/>
			<point x="2165" y="0" type="line"/>
		</contour>
		<component base="N"/>
		<component base="o" xOffset="1280" yOffset="483"/>
	</outline>
</glyph>
<glyph name="minus" format="2">
	<advance width="1005"/>
	<unicode hex="2212"/>
	<outline>
		<contour>
			<point x="-8" y="690" type="line"/>
			<point x="-8" y="629" type="line"/>
			<point x="973" y="629" type="line"/>
			<point x="973" y="690" type="line"/>
		</contour>
	</outline>
</glyph>
<glyph name="C.ss01" format="2">
	<advance width="1242"/>
	<outline>
		<contour>
			<point x="725" y="37" type="curve"/>
			<point x="725" y="37" type="line"/>
			<point x="406" y="37"/>
			<point x="126" y="283"/>
			<point x="126" y="661" type="curve"/>
			<point x="126" y="1037"/>
			<point x="406" y="1283"/>
			<point x="725" y="1283" type="curve"/>
			<point x="925" y="1283"/>
			<point x="1067" y="1216"/>
			<point x="1120" y="1166" type="curve"/>
			<point x="1149" y="1222" type="line"/>
			<point x="1091" y="1275"/>
			<point x="939" y="1344"/>
			<point x="731" y="1344" type="curve"/>
			<point x="341" y="1344"/>
			<point x="59" y="1037"/>
			<point x="59" y="658" type="curve"/>
			<point x="59" y="280"/>
			<point x="342" y="-24"/>
			<point x="731" y="-24" type="curve"/>
			<point x="939" y="-24"/>
			<point x="1091" y="45"/>
			<point x="1149" y="98" type="curve"/>
			<point x="1120" y="154" type="line"/>
			<point x="1067" y="104"/>
			<point x="925" y="37"/>
		</contour>
	</outline>
</glyph>
<glyph name="Q.ss01" format="2">
	<advance width="1376"/>
	<anchor x="669" y="1320" name="top"/>
	<anchor x="669" y="0" name="bottom"/>
	<outline>
		<contour>
			<point x="827" y="461" type="line"/>
			<point x="752" y="461" type="line"/>
			<point x="1118" y="-166" type="line"/>
			<point x="1194" y="-166" type="line"/>
		</contour>
		<component base="O"/>
	</outline>
</glyph>
<glyph name="Q.ss02" format="2">
	<advance width="1405"/>
	<anchor x="683" y="1320" name="top"/>
	<anchor x="683" y="0" name="bottom"/>
	<outline>
		<contour>
			<point x="669" y="-24" type="curve"/>
			<point x="669" y="-24" type="line"/>
			<point x="854" y="-24"/>
			<point x="1006" y="48"/>
			<point x="1114" y="166" type="curve"/>
			<point x="1206" y="115"/>
			<point x="1290" y="83"/>
			<point x="1347" y="70" type="curve"/>
			<point x="1378" y="123" type="line"/>
			<point x="1339" y="130"/>
			<point x="1250" y="168"/>
			<point x="1149" y="219" type="curve"/>
			<point x="1226" y="331"/>
			<point x="1275" y="485"/>
			<point x="1275" y="661" type="curve"/>
			<point x="1275" y="1046"/>
			<point x="1034" y="1344"/>
			<point x="669" y="1344" type="curve"/>
			<point x="306" y="1344"/>
			<point x="61" y="1046"/>
			<point x="61" y="661" type="curve"/>
			<point x="61" y="275"/>
			<point x="278" y="-24"/>
		</contour>
		<contour>
			<point x="669" y="40" type="curve"/>
			<point x="669" y="40" type="line"/>
			<point x="322" y="40"/>
			<point x="126" y="325"/>
			<point x="126" y="661" type="curve"/>
			<point x="126" y="997"/>
			<point x="336" y="1280"/>
			<point x="669" y="1280" type="curve"/>
			<point x="1002" y="1280"/>
			<point x="1210" y="997"/>
			<point x="1210" y="661" type="curve"/>
			<point x="1210" y="504"/>
			<point x="1166" y="360"/>
			<point x="1091" y="253" type="curve"/>
			<point x="1010" y="299"/>
			<point x="915" y="360"/>
			<point x="824" y="454" type="curve"/>
			<point x="784" y="405" type="line"/>
			<point x="864" y="320"/>
			<point x="955" y="254"/>
			<point x="1053" y="195" type="curve"/>
			<point x="955" y="91"/>
			<point x="813" y="40"/>
		</contour>
	</outline>
</glyph>
